<?xml version="1.0" encoding="UTF-8" standalone="no"?>
<svg width="512" height="512" viewBox="0 0 512 512" fill="none" xmlns="http://www.w3.org/2000/svg">
  <!-- Background Circle -->
  <circle cx="256" cy="256" r="240" fill="#3F51B5" />
  
  <!-- Speech Bubble Left (User) -->
  <path d="M140 180C140 168.954 148.954 160 160 160H200C211.046 160 220 168.954 220 180V240C220 251.046 211.046 260 200 260H180L160 280V260C148.954 260 140 251.046 140 240V180Z" fill="#E1F5FE" />
  
  <!-- Speech Bubble Right (AI) -->
  <path d="M292 220C292 208.954 300.954 200 312 200H352C363.046 200 372 208.954 372 220V280C372 291.046 363.046 300 352 300H332L312 320V300C300.954 300 292 291.046 292 280V220Z" fill="#E8F5E9" />
  
  <!-- Brain Icon (AI) -->
  <path d="M332 240C332 228.954 340.954 220 352 220C363.046 220 372 228.954 372 240C372 251.046 363.046 260 352 260C340.954 260 332 251.046 332 240Z" fill="#4CAF50" />
  <path d="M342 240C342 234.477 346.477 230 352 230C357.523 230 362 234.477 362 240C362 245.523 357.523 250 352 250C346.477 250 342 245.523 342 240Z" fill="#E8F5E9" />
  
  <!-- Person Icon (User) -->
  <circle cx="180" cy="200" r="20" fill="#2196F3" />
  <path d="M160 240C160 229.954 168.954 220 180 220C191.046 220 200 229.954 200 240" stroke="#2196F3" stroke-width="10" stroke-linecap="round" />
  
  <!-- Connection Lines -->
  <path d="M220 210L292 240" stroke="#FFC107" stroke-width="6" stroke-linecap="round" stroke-dasharray="12 8" />
  <path d="M292 260L220 230" stroke="#FFC107" stroke-width="6" stroke-linecap="round" stroke-dasharray="12 8" />
  
  <!-- Text "ArguMentor" -->
  <path d="M150 350H362" stroke="#FFFFFF" stroke-width="4" />
  <path d="M175 330L165 380" stroke="#FFFFFF" stroke-width="8" stroke-linecap="round" />
  <path d="M190 330C190 330 190 355 190 365C190 375 200 380 210 380C220 380 230 375 230 365C230 355 220 350 210 350C200 350 190 355 190 365" stroke="#FFFFFF" stroke-width="8" stroke-linecap="round" stroke-linejoin="round" />
  <path d="M240 330V380" stroke="#FFFFFF" stroke-width="8" stroke-linecap="round" />
  <path d="M240 355H260" stroke="#FFFFFF" stroke-width="8" stroke-linecap="round" />
  <path d="M280 330V380C280 380 290 380 300 380C310 380 320 370 320 360C320 350 310 340 300 340C290 340 280 350 280 360" stroke="#FFFFFF" stroke-width="8" stroke-linecap="round" stroke-linejoin="round" />
  <path d="M330 330V380" stroke="#FFFFFF" stroke-width="8" stroke-linecap="round" />
  <path d="M330 330H350" stroke="#FFFFFF" stroke-width="8" stroke-linecap="round" />
  <path d="M330 355H345" stroke="#FFFFFF" stroke-width="8" stroke-linecap="round" />
  <path d="M330 380H350" stroke="#FFFFFF" stroke-width="8" stroke-linecap="round" />
</svg>
