<?xml version="1.0" encoding="UTF-8" standalone="no"?>
<svg width="512" height="512" viewBox="0 0 512 512" fill="none" xmlns="http://www.w3.org/2000/svg">
  <!-- Background Gradient -->
  <rect width="512" height="512" fill="url(#paint0_linear)" />
  
  <!-- Logo Circle -->
  <circle cx="256" cy="216" r="120" fill="#3F51B5" />
  
  <!-- Speech Bubble Left (User) -->
  <path d="M196 176C196 170.477 200.477 166 206 166H226C231.523 166 236 170.477 236 176V206C236 211.523 231.523 216 226 216H216L206 226V216C200.477 216 196 211.523 196 206V176Z" fill="#E1F5FE" />
  
  <!-- Speech Bubble Right (AI) -->
  <path d="M276 186C276 180.477 280.477 176 286 176H306C311.523 176 316 180.477 316 186V216C316 221.523 311.523 226 306 226H296L286 236V226C280.477 226 276 221.523 276 216V186Z" fill="#E8F5E9" />
  
  <!-- Brain Icon (AI) -->
  <path d="M296 196C296 190.477 300.477 186 306 186C311.523 186 316 190.477 316 196C316 201.523 311.523 206 306 206C300.477 206 296 201.523 296 196Z" fill="#4CAF50" />
  <path d="M301 196C301 193.239 303.239 191 306 191C308.761 191 311 193.239 311 196C311 198.761 308.761 201 306 201C303.239 201 301 198.761 301 196Z" fill="#E8F5E9" />
  
  <!-- Person Icon (User) -->
  <circle cx="216" cy="186" r="10" fill="#2196F3" />
  <path d="M206 206C206 200.477 210.477 196 216 196C221.523 196 226 200.477 226 206" stroke="#2196F3" stroke-width="5" stroke-linecap="round" />
  
  <!-- Connection Lines -->
  <path d="M236 186L276 196" stroke="#FFC107" stroke-width="3" stroke-linecap="round" stroke-dasharray="6 4" />
  <path d="M276 206L236 196" stroke="#FFC107" stroke-width="3" stroke-linecap="round" stroke-dasharray="6 4" />
  
  <!-- Text "ArguMentor" -->
  <path d="M150 350H362" stroke="#FFFFFF" stroke-width="2" />
  <path d="M175 330L165 380" stroke="#FFFFFF" stroke-width="4" stroke-linecap="round" />
  <path d="M190 330C190 330 190 355 190 365C190 375 200 380 210 380C220 380 230 375 230 365C230 355 220 350 210 350C200 350 190 355 190 365" stroke="#FFFFFF" stroke-width="4" stroke-linecap="round" stroke-linejoin="round" />
  <path d="M240 330V380" stroke="#FFFFFF" stroke-width="4" stroke-linecap="round" />
  <path d="M240 355H260" stroke="#FFFFFF" stroke-width="4" stroke-linecap="round" />
  <path d="M280 330V380C280 380 290 380 300 380C310 380 320 370 320 360C320 350 310 340 300 340C290 340 280 350 280 360" stroke="#FFFFFF" stroke-width="4" stroke-linecap="round" stroke-linejoin="round" />
  <path d="M330 330V380" stroke="#FFFFFF" stroke-width="4" stroke-linecap="round" />
  <path d="M330 330H350" stroke="#FFFFFF" stroke-width="4" stroke-linecap="round" />
  <path d="M330 355H345" stroke="#FFFFFF" stroke-width="4" stroke-linecap="round" />
  <path d="M330 380H350" stroke="#FFFFFF" stroke-width="4" stroke-linecap="round" />
  
  <!-- Tagline -->
  <path d="M170 410H342" stroke="#FFFFFF" stroke-width="1" />
  <path d="M180 400L185 420" stroke="#FFFFFF" stroke-width="2" stroke-linecap="round" />
  <path d="M195 400H205" stroke="#FFFFFF" stroke-width="2" stroke-linecap="round" />
  <path d="M215 400V420" stroke="#FFFFFF" stroke-width="2" stroke-linecap="round" />
  <path d="M225 400C225 400 225 410 225 415C225 420 230 420 235 420" stroke="#FFFFFF" stroke-width="2" stroke-linecap="round" />
  <path d="M245 400V420" stroke="#FFFFFF" stroke-width="2" stroke-linecap="round" />
  <path d="M255 400H265" stroke="#FFFFFF" stroke-width="2" stroke-linecap="round" />
  <path d="M275 400V420" stroke="#FFFFFF" stroke-width="2" stroke-linecap="round" />
  <path d="M285 400H295" stroke="#FFFFFF" stroke-width="2" stroke-linecap="round" />
  <path d="M305 400V420" stroke="#FFFFFF" stroke-width="2" stroke-linecap="round" />
  <path d="M315 400H325" stroke="#FFFFFF" stroke-width="2" stroke-linecap="round" />
  
  <!-- Gradient Definition -->
  <defs>
    <linearGradient id="paint0_linear" x1="0" y1="0" x2="512" y2="512" gradientUnits="userSpaceOnUse">
      <stop offset="0" stop-color="#303F9F" />
      <stop offset="1" stop-color="#1A237E" />
    </linearGradient>
  </defs>
</svg>
